<svg width="30" height="30" viewBox="0 0 30 30" fill="none" xmlns="http://www.w3.org/2000/svg">
<path d="M2.5 22.5C2.5 20.575 2.5 19.6125 2.93375 18.905C3.17625 18.5087 3.50875 18.1763 3.905 17.9338C4.61125 17.5 5.575 17.5 7.5 17.5C9.425 17.5 10.3875 17.5 11.095 17.9338C11.4913 18.1763 11.8237 18.5087 12.0662 18.905C12.5 19.6112 12.5 20.575 12.5 22.5C12.5 24.425 12.5 25.3875 12.0662 26.0963C11.8237 26.4913 11.4913 26.8237 11.095 27.0662C10.3888 27.5 9.425 27.5 7.5 27.5C5.575 27.5 4.6125 27.5 3.905 27.0662C3.50919 26.8242 3.17635 26.4918 2.93375 26.0963C2.5 25.3875 2.5 24.425 2.5 22.5ZM17.5 22.5C17.5 20.575 17.5 19.6125 17.9338 18.905C18.1763 18.5087 18.5087 18.1763 18.905 17.9338C19.6112 17.5 20.575 17.5 22.5 17.5C24.425 17.5 25.3875 17.5 26.0963 17.9338C26.4913 18.1763 26.8237 18.5087 27.0662 18.905C27.5 19.6112 27.5 20.575 27.5 22.5C27.5 24.425 27.5 25.3875 27.0662 26.0963C26.8236 26.4913 26.4913 26.8236 26.0963 27.0662C25.3875 27.5 24.425 27.5 22.5 27.5C20.575 27.5 19.6125 27.5 18.905 27.0662C18.5092 26.8242 18.1764 26.4918 17.9338 26.0963C17.5 25.3875 17.5 24.425 17.5 22.5ZM2.5 7.5C2.5 5.575 2.5 4.6125 2.93375 3.905C3.17625 3.50875 3.50875 3.17625 3.905 2.93375C4.61125 2.5 5.575 2.5 7.5 2.5C9.425 2.5 10.3875 2.5 11.095 2.93375C11.4913 3.17625 11.8237 3.50875 12.0662 3.905C12.5 4.61125 12.5 5.575 12.5 7.5C12.5 9.425 12.5 10.3875 12.0662 11.095C11.8237 11.4913 11.4913 11.8237 11.095 12.0662C10.3888 12.5 9.425 12.5 7.5 12.5C5.575 12.5 4.6125 12.5 3.905 12.0662C3.50904 11.8238 3.1762 11.491 2.93375 11.095C2.5 10.3888 2.5 9.425 2.5 7.5ZM17.5 7.5C17.5 5.575 17.5 4.6125 17.9338 3.905C18.1763 3.50875 18.5087 3.17625 18.905 2.93375C19.6112 2.5 20.575 2.5 22.5 2.5C24.425 2.5 25.3875 2.5 26.0963 2.93375C26.4913 3.17625 26.8237 3.50875 27.0662 3.905C27.5 4.61125 27.5 5.575 27.5 7.5C27.5 9.425 27.5 10.3875 27.0662 11.095C26.8237 11.4913 26.4913 11.8237 26.0963 12.0662C25.3875 12.5 24.425 12.5 22.5 12.5C20.575 12.5 19.6125 12.5 18.905 12.0662C18.509 11.8238 18.1762 11.491 17.9338 11.095C17.5 10.3888 17.5 9.425 17.5 7.5Z" fill="#31BBFF" stroke="#154B8B" stroke-width="1.5" stroke-linecap="round" stroke-linejoin="round"/>
</svg>
