<svg width="119" height="120" viewBox="0 0 119 120" fill="none" xmlns="http://www.w3.org/2000/svg">
<path d="M59.4691 49.8601C70.4155 49.8601 79.2897 40.9861 79.2897 30.0394C79.2897 19.0928 70.4155 10.2188 59.4691 10.2188C48.5224 10.2188 39.6484 19.0928 39.6484 30.0394C39.6484 40.9861 48.5224 49.8601 59.4691 49.8601Z" fill="#80D6FA"/>
<path fill-rule="evenodd" clip-rule="evenodd" d="M81.7665 78.3527C74.2406 78.3527 68.1398 84.4535 68.1398 91.9794C68.1398 94.4589 68.7998 96.7814 69.9568 98.7838L88.5709 80.1697C86.5685 79.0127 84.246 78.3527 81.7665 78.3527ZM93.756 85.496L75.2831 103.969C77.2107 105.014 79.4182 105.606 81.7665 105.606C89.2924 105.606 95.3932 99.5053 95.3932 91.9794C95.3932 89.6311 94.801 87.4236 93.756 85.496ZM60.707 91.9794C60.707 80.3486 70.1357 70.9199 81.7665 70.9199C87.6582 70.9199 92.9909 73.3445 96.8089 77.2407C100.527 81.0354 102.826 86.2428 102.826 91.9794C102.826 103.61 93.3972 113.039 81.7665 113.039C76.0299 113.039 70.8225 110.74 67.0278 107.022C63.1316 103.204 60.707 97.8711 60.707 91.9794Z" fill="#51565F"/>
<path opacity="0.4" d="M89.1821 72.2639C86.8755 71.3957 84.3766 70.9205 81.7677 70.9205C70.1369 70.9205 60.7082 80.3492 60.7082 91.98C60.7082 97.8717 63.1328 103.204 67.029 107.022C67.7872 107.765 68.6013 108.451 69.4655 109.074C66.4503 109.238 63.1288 109.323 59.4694 109.323C19.8281 109.323 19.8281 99.3399 19.8281 87.0248C19.8281 74.7097 37.5761 64.7266 59.4694 64.7266C71.2994 64.7266 81.9188 67.6412 89.1821 72.2639Z" fill="#80D6FA"/>
</svg>
