<svg width="22" height="23" viewBox="0 0 22 23" fill="none" xmlns="http://www.w3.org/2000/svg">
<path fill-rule="evenodd" clip-rule="evenodd" d="M10.9062 17.2919C10.2257 17.2919 9.56838 17.2127 8.93675 17.0781L6.19347 18.7271L6.23017 16.024C4.12726 14.7596 2.74862 12.6689 2.74862 10.2997C2.74862 6.43823 6.4009 3.30746 10.9062 3.30746C15.4116 3.30746 19.0638 6.43823 19.0638 10.2997C19.0638 14.1617 15.4116 17.2919 10.9062 17.2919ZM10.9062 2.14209C5.75761 2.14209 1.58325 5.79495 1.58325 10.2997C1.58325 12.8746 2.94965 15.1675 5.07937 16.662V20.788L9.16342 18.3099C9.72862 18.4031 10.3101 18.4573 10.9062 18.4573C16.0548 18.4573 20.2292 14.805 20.2292 10.2997C20.2292 5.79495 16.0548 2.14209 10.9062 2.14209Z" fill="#838383"/>
</svg>
