<svg width="22" height="22" viewBox="0 0 22 22" fill="none" xmlns="http://www.w3.org/2000/svg">
<path fill-rule="evenodd" clip-rule="evenodd" d="M4.60413 8.62221C4.60413 6.3943 6.4102 4.58823 8.63811 4.58823C10.866 4.58823 12.6721 6.3943 12.6721 8.62221C12.6721 10.8501 10.866 12.6562 8.63811 12.6562C6.4102 12.6562 4.60413 10.8501 4.60413 8.62221Z" fill="#1090CF"/>
<path fill-rule="evenodd" clip-rule="evenodd" d="M4.27857 14.18C5.38331 13.7004 6.8328 13.5531 8.63419 13.5531C10.4372 13.5531 11.8877 13.7007 12.9928 14.1813C14.1966 14.7047 14.9283 15.5963 15.3118 16.8552C15.4916 17.4452 15.0484 18.0353 14.4376 18.0353H2.83249C2.22101 18.0353 1.77687 17.4443 1.95717 16.8532C2.34117 15.5942 3.07396 14.7028 4.27857 14.18Z" fill="#1090CF"/>
<path d="M17.1566 2.79521C17.1566 2.30013 16.7553 1.89877 16.2602 1.89877C15.7651 1.89877 15.3638 2.30013 15.3638 2.79521V4.58809H13.5709C13.0758 4.58809 12.6744 4.98945 12.6744 5.48453C12.6744 5.97962 13.0758 6.38097 13.5709 6.38097H15.3638V8.17385C15.3638 8.66894 15.7651 9.07029 16.2602 9.07029C16.7553 9.07029 17.1566 8.66894 17.1566 8.17385V6.38097H18.9495C19.4446 6.38097 19.846 5.97962 19.846 5.48453C19.846 4.98945 19.4446 4.58809 18.9495 4.58809H17.1566V2.79521Z" fill="#1090CF"/>
</svg>
