<svg width="56" height="56" viewBox="0 0 56 56" fill="none" xmlns="http://www.w3.org/2000/svg">
<path d="M16.6343 14.786C16.8284 14.7217 17.0331 14.7781 17.1919 14.9384C17.3532 15.1012 17.4225 15.33 17.3618 15.5468C17.2343 16.0023 17.1127 16.4765 16.9937 16.9686H16.9927L16.9917 16.9735L14.8267 26.2313C13.5941 31.5091 13.8482 35.7355 15.855 38.9764C17.8618 42.2172 21.5336 44.3318 26.8111 45.5868H26.814L29.2984 46.1639L25.8814 47.2889C21.5521 48.6847 18.3978 48.7469 16.0044 47.5223C13.7606 46.3742 12.0407 44.0208 10.6753 40.1639L10.4068 39.3719L7.57864 30.6454C6.18287 26.3159 6.11497 23.1558 7.3345 20.7596C8.55368 18.3644 11.1439 16.5673 15.4722 15.1718L15.4771 15.1698L16.6343 14.786Z" fill="#31BBFF" stroke="#154B8B" stroke-width="1.2152"/>
<path d="M26.9502 8.14774C29.1382 7.39265 31.9505 7.44393 35.5909 8.30496L35.5928 8.30594L39.2823 9.16727C43.8525 10.2362 46.6814 11.8672 48.1485 14.2317C49.6154 16.5963 49.818 19.8522 48.7491 24.4114L46.584 33.6468V33.6477C45.6683 37.5829 44.3282 40.2354 42.461 41.8333C40.6143 43.4134 38.1572 44.0412 34.8164 43.72L34.8067 43.719L34.4024 43.6819C33.4477 43.5836 32.4214 43.4023 31.3223 43.137H31.3203L27.6084 42.2532H27.6075C23.0588 41.1733 20.2351 39.5417 18.7676 37.179C17.3006 34.8169 17.0915 31.5666 18.1602 27.0081L20.3262 17.7503L20.3252 17.7493C20.7611 15.8974 21.279 14.3112 21.9141 13.0198L21.916 13.0159C23.1545 10.4543 24.7906 8.8931 26.9502 8.14774ZM27.7696 26.7005C26.5677 26.4 25.3257 27.1185 25.0215 28.3352C24.7213 29.5361 25.4394 30.7758 26.6543 31.0813V31.0823L33.084 32.7171L33.1162 32.7249L33.1485 32.7298C33.2793 32.7485 33.4672 32.7805 33.6543 32.7805C34.6729 32.7804 35.583 32.1162 35.8545 31.0911L35.8565 31.0823C36.1575 29.8777 35.435 28.639 34.2002 28.3352H34.2012L27.7715 26.7005H27.7696ZM29.9571 18.1497C28.7553 17.8492 27.5133 18.5678 27.209 19.7845C26.9086 20.9863 27.628 22.2283 28.8448 22.5325V22.5315L39.5586 25.2493L39.5899 25.2571L39.6221 25.262C39.753 25.2807 39.9408 25.3118 40.128 25.3118C41.1466 25.3116 42.0567 24.6476 42.3282 23.6223L42.3311 23.6116C42.6263 22.4013 41.922 21.1532 40.6739 20.8684L40.6748 20.8675L29.959 18.1497H29.9571Z" fill="white" stroke="#154B8B" stroke-width="1.2152"/>
<rect x="27.5518" y="18.1581" width="15.4869" height="3.66116" rx="1.83058" transform="rotate(14.1675 27.5518 18.1581)" fill="#154B8B"/>
<rect x="25.4942" y="26.3439" width="10.6955" height="3.93886" rx="1.96943" transform="rotate(14.1675 25.4942 26.3439)" fill="#154B8B"/>
</svg>
