<svg width="200" height="98" viewBox="0 0 200 98" fill="none" xmlns="http://www.w3.org/2000/svg">
<path d="M48.0315 73.0082C46.7613 73.0082 45.5197 72.6316 44.4635 71.9259C43.4074 71.2203 42.5843 70.2173 42.0982 69.0438C41.6122 67.8703 41.485 66.579 41.7328 65.3333C41.9806 64.0875 42.5922 62.9432 43.4904 62.0451C44.3885 61.1469 45.5328 60.5353 46.7786 60.2875C48.0243 60.0397 49.3156 60.1668 50.4891 60.6529C51.6626 61.139 52.6656 61.9621 53.3712 63.0182C54.0769 64.0743 54.4536 65.316 54.4536 66.5862C54.4536 68.2894 53.7769 69.9229 52.5726 71.1273C51.3682 72.3316 49.7347 73.0082 48.0315 73.0082ZM48.0315 62.0907C47.1424 62.0907 46.2732 62.3543 45.5339 62.8483C44.7947 63.3423 44.2185 64.0444 43.8782 64.8658C43.538 65.6873 43.4489 66.5911 43.6224 67.4632C43.7958 68.3352 44.224 69.1362 44.8527 69.7649C45.4814 70.3936 46.2824 70.8218 47.1545 70.9952C48.0265 71.1687 48.9304 71.0797 49.7518 70.7394C50.5732 70.3992 51.2753 69.823 51.7693 69.0837C52.2633 68.3444 52.5269 67.4753 52.5269 66.5862C52.5269 65.3939 52.0533 64.2504 51.2102 63.4074C50.3672 62.5643 49.2237 62.0907 48.0315 62.0907Z" fill="#EF9926"/>
<path d="M187.271 37.6478C186.827 37.6478 186.392 37.516 186.022 37.269C185.653 37.022 185.365 36.671 185.195 36.2602C185.024 35.8495 184.98 35.3976 185.067 34.9616C185.153 34.5255 185.367 34.125 185.682 33.8107C185.996 33.4963 186.397 33.2823 186.833 33.1955C187.269 33.1088 187.721 33.1533 188.131 33.3234C188.542 33.4936 188.893 33.7817 189.14 34.1513C189.387 34.5209 189.519 34.9555 189.519 35.4001C189.519 35.9962 189.282 36.5679 188.861 36.9895C188.439 37.411 187.867 37.6478 187.271 37.6478ZM187.271 33.7946C186.954 33.7946 186.643 33.8887 186.379 34.0651C186.115 34.2415 185.909 34.4923 185.788 34.7857C185.666 35.079 185.635 35.4019 185.696 35.7133C185.758 36.0247 185.911 36.3108 186.136 36.5353C186.36 36.7599 186.646 36.9128 186.958 36.9747C187.269 37.0367 187.592 37.0049 187.886 36.8834C188.179 36.7619 188.43 36.5561 188.606 36.2921C188.783 36.028 188.877 35.7176 188.877 35.4001C188.877 34.9743 188.708 34.5659 188.406 34.2648C188.105 33.9637 187.697 33.7946 187.271 33.7946Z" fill="#FFEB97"/>
<path d="M69.9065 96.7192C69.3857 96.7192 68.8766 96.5648 68.4436 96.2755C68.0106 95.9862 67.6732 95.5749 67.4739 95.0938C67.2746 94.6127 67.2224 94.0833 67.324 93.5725C67.4256 93.0617 67.6764 92.5926 68.0446 92.2243C68.4129 91.8561 68.882 91.6053 69.3928 91.5037C69.9036 91.4021 70.433 91.4543 70.9141 91.6536C71.3953 91.8528 71.8065 92.1903 72.0958 92.6233C72.3851 93.0563 72.5395 93.5654 72.5395 94.0862C72.5379 94.784 72.2599 95.4527 71.7665 95.9462C71.273 96.4396 70.6043 96.7175 69.9065 96.7192ZM69.9065 92.2238C69.5381 92.2238 69.1781 92.333 68.8718 92.5377C68.5655 92.7423 68.3268 93.0332 68.1859 93.3735C68.0449 93.7138 68.008 94.0883 68.0799 94.4495C68.1517 94.8108 68.3291 95.1426 68.5896 95.4031C68.85 95.6636 69.1819 95.8409 69.5432 95.9128C69.9044 95.9847 70.2789 95.9478 70.6192 95.8068C70.9595 95.6659 71.2504 95.4272 71.455 95.1209C71.6597 94.8146 71.7689 94.4545 71.7689 94.0862C71.7689 93.5922 71.5727 93.1185 71.2234 92.7693C70.8742 92.42 70.4004 92.2238 69.9065 92.2238Z" fill="#EA3F3F"/>
<path d="M162.624 64.4674C164.22 64.4674 165.514 63.1735 165.514 61.5774C165.514 59.9814 164.22 58.6875 162.624 58.6875C161.028 58.6875 159.734 59.9814 159.734 61.5774C159.734 63.1735 161.028 64.4674 162.624 64.4674Z" fill="#FFAE1F"/>
<path d="M42.9977 31.5209C44.2391 31.5209 45.2455 30.5145 45.2455 29.2731C45.2455 28.0317 44.2391 27.0254 42.9977 27.0254C41.7563 27.0254 40.75 28.0317 40.75 29.2731C40.75 30.5145 41.7563 31.5209 42.9977 31.5209Z" fill="#FFAE1F"/>
<path d="M140.514 17.9189C141.933 17.9189 143.083 16.7688 143.083 15.3501C143.083 13.9314 141.933 12.7812 140.514 12.7812C139.095 12.7812 137.945 13.9314 137.945 15.3501C137.945 16.7688 139.095 17.9189 140.514 17.9189Z" fill="#FFD522"/>
<path d="M8.19384 82.5888C9.61256 82.5888 10.7627 81.4387 10.7627 80.02C10.7627 78.6013 9.61256 77.4512 8.19384 77.4512C6.77511 77.4512 5.625 78.6013 5.625 80.02C5.625 81.4387 6.77511 82.5888 8.19384 82.5888Z" fill="#FFD522"/>
<path d="M188.966 86.8786C190.03 86.8786 190.892 86.0161 190.892 84.952C190.892 83.888 190.03 83.0254 188.966 83.0254C187.902 83.0254 187.039 83.888 187.039 84.952C187.039 86.0161 187.902 86.8786 188.966 86.8786Z" fill="#FFD522"/>
<path d="M59.2024 55.7447C60.7985 55.7447 62.0924 54.4509 62.0924 52.8548C62.0924 51.2587 60.7985 49.9648 59.2024 49.9648C57.6064 49.9648 56.3125 51.2587 56.3125 52.8548C56.3125 54.4509 57.6064 55.7447 59.2024 55.7447Z" fill="#E54242"/>
<path d="M123.401 1.92858C123.933 1.92858 124.364 1.49729 124.364 0.965266C124.364 0.433243 123.933 0.00195312 123.401 0.00195312C122.869 0.00195312 122.438 0.433243 122.438 0.965266C122.438 1.49729 122.869 1.92858 123.401 1.92858Z" fill="#E54242"/>
<path d="M21.5258 74.8055C22.0578 74.8055 22.4891 74.3742 22.4891 73.8422C22.4891 73.3102 22.0578 72.8789 21.5258 72.8789C20.9938 72.8789 20.5625 73.3102 20.5625 73.8422C20.5625 74.3742 20.9938 74.8055 21.5258 74.8055Z" fill="#E54242"/>
<path d="M67.6586 68.8387C68.1906 68.8387 68.6219 68.4074 68.6219 67.8754C68.6219 67.3434 68.1906 66.9121 67.6586 66.9121C67.1266 66.9121 66.6953 67.3434 66.6953 67.8754C66.6953 68.4074 67.1266 68.8387 67.6586 68.8387Z" fill="#E54242"/>
<path d="M143.409 58.2235C143.941 58.2235 144.372 57.7922 144.372 57.2602C144.372 56.7282 143.941 56.2969 143.409 56.2969C142.877 56.2969 142.445 56.7282 142.445 57.2602C142.445 57.7922 142.877 58.2235 143.409 58.2235Z" fill="#FFAE1F"/>
<path d="M69.5336 7.66881C70.0656 7.66881 70.4969 7.23752 70.4969 6.7055C70.4969 6.17348 70.0656 5.74219 69.5336 5.74219C69.0016 5.74219 68.5703 6.17348 68.5703 6.7055C68.5703 7.23752 69.0016 7.66881 69.5336 7.66881Z" fill="#FFC91F"/>
<path d="M105.09 14.9903C105.977 14.9903 106.695 14.2715 106.695 13.3848C106.695 12.4981 105.977 11.7793 105.09 11.7793C104.203 11.7793 103.484 12.4981 103.484 13.3848C103.484 14.2715 104.203 14.9903 105.09 14.9903Z" fill="#EF4B4B"/>
<path d="M195.824 71.086C196.711 71.086 197.43 70.3672 197.43 69.4805C197.43 68.5938 196.711 67.875 195.824 67.875C194.938 67.875 194.219 68.5938 194.219 69.4805C194.219 70.3672 194.938 71.086 195.824 71.086Z" fill="#EF4B4B"/>
<path d="M154.707 51.0704C155.594 51.0704 156.313 50.3516 156.313 49.4649C156.313 48.5782 155.594 47.8594 154.707 47.8594C153.82 47.8594 153.102 48.5782 153.102 49.4649C153.102 50.3516 153.82 51.0704 154.707 51.0704Z" fill="#E54242"/>
<path d="M172.911 86.3011L166.354 79.4424L159.668 83.0773L158.75 81.3818L166.726 77.0469L172.994 83.5974L183.404 73.9258L184.714 75.3386L172.911 86.3011Z" fill="#FFAE1F"/>
<path d="M163.87 36.4214L163.016 26.9103L172.482 26.8975L169.573 16.6414L180.445 16.0185L177.485 8.44683L179.88 7.51562L184.125 18.3754L172.918 19.024L175.879 29.4663L165.828 29.4792L166.426 36.1902L163.87 36.4214Z" fill="#EF4B4B"/>
<path d="M59.435 33.4154L57.5983 32.8245L60.8222 22.8703L52.0175 18.9913L55.7487 9.66648L45.2422 7.07837L45.6982 5.20312L58.3561 8.32426L54.4964 17.9767L63.1919 21.8106L59.435 33.4154Z" fill="#FFAE1F"/>
<path d="M14.3953 61.0116L9.07779 49.8115L2.46304 59.4639L0.34375 58.0125L9.47596 44.6738L15.0824 56.4648L20.9779 50.0555L26.3532 58.9822L24.1504 60.3052L20.5476 54.3198L14.3953 61.0116Z" fill="#FFE669"/>
<path d="M28.924 34.3663C23.2854 30.6286 25.0707 22.9349 25.1863 22.6074L27.0552 23.0698C27.0552 23.134 25.4882 29.7745 29.9901 32.7607L28.924 34.3663Z" fill="#FFAE1F"/>
<path d="M189.796 55.9775L188.133 55.0077C191.543 49.1636 199.333 50.5444 199.66 50.6086L199.307 52.5352C199.211 52.4903 192.519 51.2894 189.796 55.9775Z" fill="#FFAE1F"/>
<path d="M53.9126 85.1976L52.1016 84.5554C52.9545 82.5757 54.4355 80.9319 56.3159 79.8779C58.1963 78.8239 60.3715 78.4185 62.5054 78.7242L62.2998 80.6508C55.9484 79.9315 53.9319 85.1463 53.9126 85.1976Z" fill="#FFAE1F"/>
<path d="M142.74 97.9776L140.954 97.2519C141.763 95.2418 141.841 93.5014 141.173 92.0757C140.46 90.7141 139.264 89.6676 137.82 89.1408L138.418 87.3105C140.364 88.0071 141.972 89.4196 142.913 91.2601C143.819 93.1932 143.761 95.4538 142.74 97.9776Z" fill="#CC3232"/>
<path d="M75.9092 14.8813L74.9844 13.1923C76.8725 12.1519 78.0349 10.8547 78.4266 9.33907C78.7302 7.82686 78.4649 6.25581 77.6816 4.9271L79.3064 3.88672C80.3712 5.66031 80.7246 7.77139 80.2954 9.79504C79.7624 11.8565 78.3046 13.5712 75.9092 14.8813Z" fill="#CC3232"/>
<path d="M156.557 75.5577C148.343 74.0035 146.378 66.4833 146.281 66.1622L148.157 65.6934C148.738 67.6993 149.862 69.5054 151.406 70.9119C152.95 72.3185 154.852 73.2706 156.903 73.6632L156.557 75.5577Z" fill="#EF4B4B"/>
<path d="M143.707 26.1458C142.629 26.8843 154.901 25.2017 160.302 10.63C160.752 9.42906 155.164 5.49232 153.809 7.09142C152.454 8.69052 156.372 17.5723 143.707 26.1458Z" fill="#FFAE1F"/>
<path d="M72.5469 42.4258C72.5469 42.4258 72.5983 80.4188 73.4588 81.8189C74.3194 83.2189 105.479 97.508 106.61 97.1741L106.417 56.5287L72.5469 42.4258Z" fill="#E54242"/>
<path d="M84.3594 87.5329C84.3594 87.5329 87.108 91.6623 93.1705 91.6623V53.3288L84.3594 49.3086V87.5329Z" fill="#FFAE1F"/>
<g style="mix-blend-mode:multiply" opacity="0.2">
<path d="M93.1705 59.7275V53.3054L84.3594 49.2852V57.1972C87.2686 58.1733 90.1971 59.0339 93.1705 59.7275Z" fill="#FFAE1F"/>
</g>
<path d="M106.086 56.6828L106.593 97.1419C106.593 97.1419 136.835 82.4739 137.124 80.9262C137.413 79.3785 138.196 40.9102 138.196 40.9102L106.086 56.6828Z" fill="#C13838"/>
<path d="M120.334 90.3727C120.334 90.3727 125.652 89.7305 128.311 86.269L129.21 48.2695L120.219 51.0118L120.334 90.3727Z" fill="#EF9926"/>
<g style="mix-blend-mode:multiply" opacity="0.17">
<path d="M128.962 59.2203L129.225 48.3027L120.234 51.045L120.273 62.3992C123.176 61.391 126.091 60.357 128.962 59.2203Z" fill="#EF9926"/>
</g>
<path d="M69.5304 37.082C69.5304 37.082 69.2736 45.694 69.6139 46.85C69.9543 48.006 107.267 63.3933 108.076 63.708C108.076 63.708 107.845 53.2657 107.825 52.8547C107.806 52.4437 69.5304 37.082 69.5304 37.082Z" fill="#EF4B4B"/>
<path d="M107.828 52.8547L108.079 63.7081C108.079 63.7081 140.003 50.7354 140.465 49.1749C140.696 48.3978 141.422 38.6105 140.221 38.6427L107.828 52.8547Z" fill="#D33C3C"/>
<path d="M107.826 52.8552L140.219 38.6431C140.219 38.6431 106.214 25.5356 104.589 25.5998C102.965 25.6641 69.5312 37.1146 69.5312 37.1146L107.826 52.8552Z" fill="#E54242"/>
<path d="M85.4453 31.6823L122.912 46.2347L123.625 57.2293C123.625 57.2293 128.576 57.756 131.081 54.0183L130.438 42.9595L92.6766 29.2676C92.6766 29.2676 87.3912 29.3061 85.4453 31.6823Z" fill="#FFAE1F"/>
<path d="M116.515 29.6662C116.515 29.6662 121.827 29.5955 124.447 32.6267L91.7648 46.2351L91.617 56.8444C91.617 56.8444 84.3601 56.0545 82.2344 52.8563L82.5105 42.4268L116.515 29.6662Z" fill="#FFC91F"/>
<path d="M129.702 17.2523C116.132 2.7769 103.802 34.0525 106.775 37.0837C110.821 41.2131 144.055 32.5625 129.702 17.2523ZM107.681 36.3066C107.148 35.5809 118.232 8.69164 126.812 19.956C136.824 33.1213 108.516 37.4305 107.681 36.3066Z" fill="#FFE424"/>
<g style="mix-blend-mode:multiply" opacity="0.18">
<path d="M131.134 19.0117C131.102 19.3007 131.07 19.5897 131.031 19.8787C130.64 22.1565 129.892 24.3585 128.815 26.4035C128.618 27.3696 128.2 28.2772 127.595 29.0559C127.467 29.314 127.274 29.535 127.036 29.6981C122.631 34.4889 111.803 36.4991 108.573 36.4541C107.883 36.5528 107.189 36.6128 106.492 36.6339C106.546 36.7941 106.634 36.9408 106.749 37.0642C110.66 41.0523 141.499 33.2174 131.134 19.0117Z" fill="#FFBB24"/>
</g>
<path d="M106.869 36.0302C108.937 35.1247 109.033 17.2456 99.4707 21.7026C89.388 26.4228 104.05 37.2697 106.869 36.0302ZM100.363 23.6163C106.83 19.7631 106.978 35.2211 106.574 35.4715C105.938 35.8761 92.8174 28.1311 100.363 23.6163Z" fill="#FFE424"/>
<g style="mix-blend-mode:multiply" opacity="0.18">
<path d="M98.3855 22.2852C98.3406 22.4329 98.302 22.5806 98.2635 22.7347C98.0071 23.9349 97.94 25.1679 98.0644 26.3889C97.9737 26.9065 98.0022 27.4381 98.1479 27.943C98.1564 28.0984 98.2051 28.2488 98.2892 28.3797C99.5158 31.5908 104.461 34.7504 106.066 35.367C106.386 35.553 106.716 35.7203 107.055 35.8679C107 35.9363 106.93 35.9913 106.85 36.0284C104.165 37.2229 90.4928 27.2494 98.3855 22.2852Z" fill="#FFBB24"/>
</g>
<path d="M106.981 37.0188C109.954 33.9876 97.6237 2.71845 84.0538 17.1874C69.694 32.4977 102.935 41.1482 106.981 37.0188ZM86.9437 19.8975C95.5236 8.61392 106.608 35.5225 106.088 36.2417C105.24 37.372 76.9317 33.0628 86.9437 19.8975Z" fill="#FFE424"/>
<g style="mix-blend-mode:multiply" opacity="0.18">
<path d="M82.5955 18.9473C82.6277 19.2363 82.6598 19.5317 82.6983 19.8207C83.0862 22.0947 83.8273 24.294 84.8946 26.3391C85.0982 27.3044 85.5175 28.2112 86.1213 28.9914C86.2499 29.2495 86.4422 29.4705 86.68 29.6336C91.0855 34.4309 101.913 36.4346 105.143 36.3897C105.833 36.4873 106.528 36.5495 107.224 36.5759C107.167 36.7325 107.08 36.8765 106.967 36.9998C103.088 41.0136 72.2496 33.1529 82.5955 18.9473Z" fill="#FFBB24"/>
</g>
<path d="M115.384 28.1675C109.572 23.3766 106.451 35.7391 107.716 36.7409C109.444 38.0639 121.505 33.1959 115.384 28.1675ZM108.018 36.3685C107.781 36.1244 110.645 25.4509 114.44 29.3042C118.833 33.7611 108.391 36.7538 108.018 36.3685Z" fill="#FFE424"/>
<g style="mix-blend-mode:multiply" opacity="0.18">
<path d="M116.021 28.7285V29.0625C115.984 29.9402 115.81 30.8068 115.507 31.6313C115.479 32.0055 115.365 32.3681 115.173 32.6909C115.138 32.7971 115.076 32.8922 114.993 32.9671C113.568 34.9836 109.592 36.268 108.372 36.4029C108.119 36.4743 107.861 36.5321 107.602 36.5763C107.631 36.6319 107.67 36.6819 107.717 36.724C109.374 38.0149 120.6 33.5708 116.021 28.7285Z" fill="#FFBB24"/>
</g>
<path opacity="0.48" d="M88.1064 43.3436C90.5135 42.1775 93.0221 41.2338 95.6009 40.5243C95.8403 40.4504 96.0415 40.286 96.1617 40.0662C96.2819 39.8464 96.3118 39.5884 96.245 39.3469C96.1781 39.1055 96.0198 38.8996 95.8037 38.7729C95.5875 38.6462 95.3305 38.6087 95.0872 38.6683C92.347 39.4184 89.6814 40.418 87.1238 41.6546C86.0128 42.1941 86.9825 43.8574 88.0999 43.3179L88.1064 43.3436Z" fill="#FFE424"/>
<path opacity="0.48" d="M84.4519 45.6626L84.1437 49.7663C84.0538 51.0058 85.9804 50.9994 86.0703 49.7663L86.3786 45.6626C86.4685 44.4296 84.5418 44.436 84.4519 45.6626Z" fill="#FFE424"/>
<path opacity="0.45" d="M116.85 41.2904L125.52 44.1931C126.695 44.5849 127.203 42.7289 126.034 42.3372L117.364 39.4344C116.189 39.0362 115.681 40.8986 116.85 41.2904Z" fill="#FFC91F"/>
<path opacity="0.45" d="M127.283 45.7523C127.316 47.1138 127.283 48.4817 127.213 49.8432C127.142 51.0827 129.069 51.0762 129.139 49.8432C129.223 48.4817 129.242 47.1138 129.21 45.7523C129.21 44.5129 127.283 44.5064 127.283 45.7523Z" fill="#FFC91F"/>
<path opacity="0.45" d="M86.1094 77.1508C86.1094 78.7692 86.1244 80.3875 86.1543 82.0059C86.1543 82.2614 86.2558 82.5064 86.4365 82.6871C86.6171 82.8677 86.8622 82.9692 87.1176 82.9692C87.3731 82.9692 87.6182 82.8677 87.7988 82.6871C87.9795 82.5064 88.081 82.2614 88.081 82.0059C88.081 80.3875 88.066 78.7692 88.036 77.1508C88.036 76.8953 87.9345 76.6503 87.7538 76.4696C87.5732 76.289 87.3282 76.1875 87.0727 76.1875C86.8172 76.1875 86.5722 76.289 86.3915 76.4696C86.2109 76.6503 86.1094 76.8953 86.1094 77.1508Z" fill="#FFC91F"/>
<path opacity="0.45" d="M86.125 65.893C86.125 68.5432 86.1485 71.1934 86.1956 73.8435C86.1956 74.099 86.2971 74.3441 86.4778 74.5247C86.6584 74.7054 86.9035 74.8069 87.159 74.8069C87.4144 74.8069 87.6595 74.7054 87.8401 74.5247C88.0208 74.3441 88.1223 74.099 88.1223 73.8435C88.0966 71.1934 88.073 68.5432 88.0516 65.893C88.0516 65.6375 87.9501 65.3925 87.7695 65.2118C87.5888 65.0312 87.3438 64.9297 87.0883 64.9297C86.8328 64.9297 86.5878 65.0312 86.4071 65.2118C86.2265 65.3925 86.125 65.6375 86.125 65.893Z" fill="#FFC91F"/>
<path opacity="0.51" d="M125.617 62.412C125.519 66.2353 125.482 70.0543 125.508 73.869C125.508 74.1245 125.609 74.3695 125.79 74.5502C125.971 74.7308 126.216 74.8323 126.471 74.8323C126.727 74.8323 126.972 74.7308 127.152 74.5502C127.333 74.3695 127.435 74.1245 127.435 73.869C127.435 70.05 127.471 66.231 127.544 62.412C127.544 61.1726 125.617 61.1726 125.617 62.412Z" fill="#FFAE1F"/>
<path opacity="0.51" d="M125.56 77.5025C125.418 79.1801 125.457 80.868 125.675 82.5374C125.83 83.7511 127.756 83.764 127.602 82.5374C127.384 80.868 127.345 79.1801 127.486 77.5025C127.583 76.2694 125.656 76.2758 125.56 77.5025Z" fill="#FFAE1F"/>
<path d="M76.4062 38.1819C78.9151 37.4241 81.4026 36.5914 83.8687 35.6837C85.0246 35.2599 84.5109 33.3975 83.3549 33.8277C80.8974 34.7311 78.4099 35.5617 75.8924 36.3195C74.7108 36.6791 75.2117 38.5415 76.4062 38.1819Z" fill="#EF4B4B"/>
<path d="M74.2382 53.1308C74.0884 57.7076 74.0777 62.2844 74.2061 66.8612C74.2382 68.1007 76.1648 68.1071 76.1327 66.8612C76.0129 62.2844 76.0236 57.7076 76.1648 53.1308C76.2034 51.8913 74.2767 51.8913 74.2382 53.1308Z" fill="#EF4B4B"/>
<path d="M74.3356 70.0741C74.2906 71.6219 74.2778 73.176 74.3356 74.7301C74.3356 75.9696 76.2622 75.9696 76.2622 74.7301C76.2622 73.176 76.2622 71.6219 76.2622 70.0741C76.3007 68.8347 74.3741 68.8347 74.3356 70.0741Z" fill="#EF4B4B"/>
</svg>
