<svg width="44" height="45" viewBox="0 0 44 45" fill="none" xmlns="http://www.w3.org/2000/svg">
<path d="M28.4628 14.3881C28.4628 17.8728 25.6379 20.6976 22.1532 20.6976C18.6686 20.6976 15.8437 17.8728 15.8437 14.3881C15.8437 10.9035 18.6686 8.07861 22.1532 8.07861C25.6379 8.07861 28.4628 10.9035 28.4628 14.3881Z" fill="#0490CF"/>
<path d="M32.9694 30.6127C32.9694 34.0974 28.1268 36.9223 22.1531 36.9223C16.1794 36.9223 11.3368 34.0974 11.3368 30.6127C11.3368 27.1281 16.1794 24.3032 22.1531 24.3032C28.1268 24.3032 32.9694 27.1281 32.9694 30.6127Z" fill="#0490CF"/>
<path d="M13.3599 9.88086C13.6798 9.88086 13.9921 9.91224 14.2937 9.972C13.559 11.277 13.1399 12.7834 13.1399 14.3877C13.1399 15.9529 13.5388 17.4249 14.2406 18.7076C13.9555 18.7607 13.6611 18.7886 13.3599 18.7886C10.8101 18.7886 8.74307 16.7945 8.74307 14.3347C8.74307 11.8749 10.8101 9.88086 13.3599 9.88086Z" fill="#0490CF"/>
<path d="M10.3403 35.0942C9.31652 33.8704 8.63253 32.3685 8.63253 30.6127C8.63253 28.9105 9.27533 27.4471 10.2474 26.2441C6.81377 26.5106 4.12573 28.3885 4.12573 30.6657C4.12573 32.9641 6.861 34.8559 10.3403 35.0942Z" fill="#0490CF"/>
<path d="M31.1662 14.3877C31.1662 15.9529 30.7672 17.4249 30.0654 18.7076C30.3506 18.7607 30.645 18.7886 30.9462 18.7886C33.496 18.7886 35.563 16.7945 35.563 14.3347C35.563 11.8749 33.496 9.88086 30.9462 9.88086C30.6262 9.88086 30.314 9.91224 30.0124 9.972C30.747 11.277 31.1662 12.7834 31.1662 14.3877Z" fill="#0490CF"/>
<path d="M33.9662 35.0942C37.4455 34.8559 40.1808 32.9641 40.1808 30.6657C40.1808 28.3885 37.4927 26.5106 34.0591 26.2441C35.0311 27.4471 35.674 28.9105 35.674 30.6127C35.674 32.3685 34.99 33.8704 33.9662 35.0942Z" fill="#0490CF"/>
</svg>
