<svg width="56" height="56" viewBox="0 0 56 56" fill="none" xmlns="http://www.w3.org/2000/svg">
<path d="M28.5875 13.3355C28.5875 13.3355 11.4468 27.5572 11.4468 29.007V42.6432C11.4468 44.0929 12.622 45.269 14.0723 45.269H23.2838V37.128C23.2838 35.2344 24.8186 33.7 26.712 33.7H30.5683C32.4612 33.7 33.9966 35.2344 33.9966 37.128V45.269H43.3888C44.8386 45.269 46.014 44.0929 46.014 42.6432V29.0071C46.0139 27.5572 28.5875 13.3355 28.5875 13.3355Z" fill="#31BBFF"/>
<path d="M49.8429 28.1896L29.876 10.9392C29.1217 10.2877 27.9828 10.3705 27.3315 11.1244C26.6801 11.8791 26.7633 13.0181 27.5175 13.6691L47.4843 30.9194C48.2385 31.5706 49.3773 31.4872 50.0285 30.7334C50.6799 29.9791 50.5969 28.8406 49.8429 28.1896Z" fill="#154B8B"/>
<path d="M30.136 11.1244C29.4848 10.3705 28.3462 10.2877 27.5922 10.9392L7.62466 28.1897C6.8707 28.8409 6.78763 29.9794 7.43888 30.7336C8.09001 31.4875 9.22884 31.5708 9.98291 30.9197L29.9502 13.6693C30.7044 13.0181 30.7875 11.8792 30.136 11.1244Z" fill="#154B8B"/>
</svg>
