<svg width="57" height="56" viewBox="0 0 57 56" fill="none" xmlns="http://www.w3.org/2000/svg">
<path d="M48.9903 46.0122L41.5402 38.5621C44.3248 35.2225 46.0027 30.9295 46.0027 26.2515C46.0027 15.6364 37.3666 7.00031 26.7515 7.00031C16.1364 7.00031 7.50042 15.6362 7.50042 26.2515C7.50042 36.8667 16.1364 45.5026 26.7516 45.5026C31.431 45.5026 35.7254 43.8236 39.0655 41.0374L46.5154 48.4874C46.8572 48.8291 47.3051 49 47.7528 49C48.2006 49 48.6487 48.8292 48.9903 48.4874C49.6739 47.8038 49.6739 46.6956 48.9903 46.0122Z" fill="#31BBFF"/>
<path d="M26.7514 10.5003C18.0663 10.5003 11.0004 17.5661 11.0004 26.2512C11.0004 34.9363 18.0663 42.0022 26.7514 42.0022C35.4364 42.0022 42.5023 34.9363 42.5023 26.2512C42.5023 17.5661 35.4363 10.5003 26.7514 10.5003ZM18.5842 34.4183C18.5842 29.9074 22.2408 26.2512 26.7514 26.2512C23.8518 26.2512 21.501 23.9005 21.501 21.0008C21.501 18.1012 23.8518 15.7505 26.7514 15.7505C29.6509 15.7505 32.0017 18.101 32.0017 21.0008C32.0017 23.9005 29.6509 26.2512 26.7514 26.2512C31.2617 26.2512 34.9184 29.9073 34.9184 34.4183H18.5842V34.4183Z" fill="white"/>
<path d="M26.7507 26.2509C29.6504 26.2509 32.001 23.9003 32.001 21.0006C32.001 18.1009 29.6504 15.7503 26.7507 15.7503C23.8511 15.7503 21.5004 18.1009 21.5004 21.0006C21.5004 23.9003 23.8511 26.2509 26.7507 26.2509Z" fill="#EFC27B"/>
<path d="M26.7521 26.252C22.2416 26.252 18.5849 29.9082 18.5849 34.4192H26.7521H34.9191C34.9191 29.9082 31.2624 26.252 26.7521 26.252Z" fill="#2490C5"/>
<path d="M21.5004 21.0006C21.5004 23.9004 23.8512 26.2509 26.7508 26.2509V15.7503C23.8513 15.7505 21.5004 18.101 21.5004 21.0006Z" fill="#ECB45C"/>
<path d="M18.5849 34.4192H26.7521V26.252C22.2416 26.2521 18.5849 29.9083 18.5849 34.4192Z" fill="#31BBFF"/>
</svg>
