<svg width="14" height="15" viewBox="0 0 14 15" fill="none" xmlns="http://www.w3.org/2000/svg">
<path d="M7.7565 5.62367C7.40167 4.98712 7.22423 4.66885 6.959 4.66885C6.69377 4.66885 6.51633 4.98712 6.1615 5.62367L6.06967 5.78835C5.96888 5.96924 5.91846 6.05967 5.83985 6.11935C5.76124 6.17902 5.66331 6.20118 5.46749 6.24548L5.28927 6.28581C4.60019 6.44173 4.25567 6.51967 4.1737 6.78328C4.09174 7.04683 4.3266 7.32148 4.79634 7.87083L4.91792 8.01291C5.05138 8.169 5.1181 8.24705 5.14814 8.34364C5.17817 8.44018 5.16808 8.54433 5.14791 8.75259L5.12953 8.94218C5.05849 9.67508 5.02303 10.0416 5.23761 10.2044C5.4522 10.3674 5.77475 10.2188 6.4199 9.92177L6.58681 9.8449C6.77019 9.76052 6.86185 9.71828 6.959 9.71828C7.05615 9.71828 7.14781 9.76052 7.33119 9.8449L7.4981 9.92177C8.14323 10.2188 8.46581 10.3674 8.68041 10.2044C8.895 10.0416 8.85949 9.67508 8.78847 8.94218L8.77009 8.75259C8.74991 8.54433 8.73982 8.44018 8.76985 8.34364C8.79987 8.24705 8.86662 8.169 9.0001 8.01291L9.12163 7.87083C9.59139 7.32148 9.82626 7.04683 9.74429 6.78328C9.66232 6.51967 9.3178 6.44173 8.62875 6.28581L8.45049 6.24548C8.25468 6.20118 8.15677 6.17902 8.07815 6.11935C7.99954 6.05967 7.94912 5.96924 7.84832 5.78835L7.7565 5.62367Z" fill="white" stroke="white" stroke-width="0.67233"/>
<path d="M6.95569 1.87003V2.99058" stroke="white" stroke-width="0.403398" stroke-linecap="round"/>
<path d="M6.95569 11.954V13.0746" stroke="white" stroke-width="0.403398" stroke-linecap="round"/>
<path d="M12.5651 7.47159H11.4445" stroke="white" stroke-width="0.403398" stroke-linecap="round"/>
<path d="M2.47913 7.47159H1.35858" stroke="white" stroke-width="0.403398" stroke-linecap="round"/>
<path d="M10.3229 10.8337L10.1307 10.6415" stroke="white" stroke-width="0.403398" stroke-linecap="round"/>
<path d="M3.79163 4.30258L3.59928 4.11026" stroke="white" stroke-width="0.403398" stroke-linecap="round"/>
<path d="M3.59945 10.8337L3.79163 10.6415" stroke="white" stroke-width="0.403398" stroke-linecap="round"/>
<path d="M10.1306 4.30258L10.3229 4.11026" stroke="white" stroke-width="0.403398" stroke-linecap="round"/>
</svg>
