<svg width="23" height="22" viewBox="0 0 23 22" fill="#0490CF" xmlns="http://www.w3.org/2000/svg">
<path d="M13.9491 5.85735C12.9273 4.0241 12.4162 3.10748 11.6524 3.10748C10.8885 3.10748 10.3775 4.0241 9.35557 5.85735L9.0911 6.33163C8.80082 6.85258 8.65559 7.11304 8.42921 7.2849C8.20282 7.45677 7.92076 7.52057 7.35681 7.64816L6.84353 7.76432C4.85898 8.21337 3.86678 8.43782 3.63071 9.19701C3.39464 9.95604 4.07106 10.747 5.4239 12.3291L5.77404 12.7384C6.1584 13.1879 6.35058 13.4127 6.43707 13.6909C6.52356 13.9689 6.49451 14.2688 6.43642 14.8686L6.3835 15.4147C6.17889 17.5254 6.07675 18.5808 6.69476 19.0499C7.31276 19.5191 8.24171 19.0914 10.0998 18.2359L10.5804 18.0145C11.1086 17.7715 11.3726 17.6498 11.6524 17.6498C11.9321 17.6498 12.1961 17.7715 12.7243 18.0145L13.2049 18.2359C15.0629 19.0914 15.992 19.5191 16.61 19.0499C17.228 18.5808 17.1257 17.5254 16.9212 15.4147L16.8683 14.8686C16.8102 14.2688 16.7811 13.9689 16.8676 13.6909C16.9541 13.4127 17.1463 13.1879 17.5307 12.7384L17.8807 12.3291C19.2336 10.747 19.91 9.95604 19.674 9.19701C19.4379 8.43782 18.4457 8.21337 16.4612 7.76432L15.9478 7.64816C15.3839 7.52057 15.1019 7.45677 14.8755 7.2849C14.6491 7.11304 14.5039 6.85258 14.2136 6.33163L13.9491 5.85735Z" stroke="#0490CF" fill="#0490CF" stroke-width="1.34466"/>
</svg>
