<svg width="36" height="36" viewBox="0 0 36 36" fill="none" xmlns="http://www.w3.org/2000/svg">
<path d="M3.16406 23.9994C3.16406 19.7976 3.16406 17.6967 4.46942 16.3913C5.77477 15.0859 7.8757 15.0859 12.0776 15.0859H23.9622C28.1641 15.0859 30.265 15.0859 31.5704 16.3913C32.8757 17.6967 32.8757 19.7976 32.8757 23.9994C32.8757 28.2013 32.8757 30.3022 31.5704 31.6076C30.265 32.9129 28.1641 32.913 23.9622 32.913H12.0776C7.8757 32.913 5.77477 32.9129 4.46942 31.6076C3.16406 30.3022 3.16406 28.2013 3.16406 23.9994Z" stroke="black" stroke-width="1.7827"/>
<path opacity="0.5" d="M9.10938 15.0878V12.1166C9.10938 7.19384 13.1001 3.20312 18.0229 3.20312C22.9457 3.20312 26.9364 7.19384 26.9364 12.1166V15.0878" stroke="black" stroke-width="1.7827" stroke-linecap="round"/>
</svg>
