<svg width="30" height="30" viewBox="0 0 30 30" fill="none" xmlns="http://www.w3.org/2000/svg">
<path d="M3.3623 16.4609L3.33887 19.1738L7.76562 16.4609H16.2998C17.4541 16.4609 18.3887 15.5059 18.3887 14.3252V6.03418C18.3887 4.85352 17.4541 3.89844 16.2998 3.89844H3.3623C2.20801 3.89844 1.27344 4.85352 1.27344 6.03418V14.3252C1.27344 15.5059 2.20801 16.4609 3.3623 16.4609Z" fill="#31BBFF"/>
<path d="M3.3418 19.6025C3.26855 19.6025 3.19824 19.585 3.13379 19.5469C2.99902 19.4707 2.91699 19.3271 2.91699 19.1748L2.9375 16.8516C1.75391 16.6436 0.851562 15.5918 0.851562 14.3262V6.03516C0.851562 4.62305 1.97949 3.47461 3.36523 3.47461H16.2998C17.6855 3.47461 18.8135 4.62305 18.8135 6.03516V14.3262C18.8135 15.7383 17.6855 16.8867 16.2998 16.8867H7.88867L3.56445 19.5381C3.49414 19.5791 3.41797 19.6025 3.3418 19.6025ZM3.36523 4.32422C2.44824 4.32422 1.70117 5.0918 1.70117 6.03516V14.3262C1.70117 15.2695 2.44824 16.0371 3.36816 16.0371C3.48242 16.0371 3.59082 16.0811 3.66992 16.1631C3.74902 16.2422 3.79297 16.3535 3.79297 16.4648L3.77539 18.4131L7.54883 16.0986C7.61621 16.0576 7.69238 16.0371 7.77148 16.0371H16.3057C17.2256 16.0371 17.9727 15.2695 17.9727 14.3262V6.03516C17.9727 5.0918 17.2256 4.32422 16.3057 4.32422H3.36523Z" fill="#154B8B"/>
<path d="M26.0811 22.6504L26.1133 26.0898L20.3828 22.6504H9.33203C7.83789 22.6504 6.625 21.4375 6.625 19.9434V9.4375C6.625 7.94336 7.83789 6.73047 9.33203 6.73047H26.0811C27.5752 6.73047 28.7881 7.94336 28.7881 9.4375V19.9463C28.7881 21.4375 27.5781 22.6504 26.0811 22.6504Z" fill="#FAFCFC"/>
<path d="M26.1084 26.5137C26.0322 26.5137 25.9561 26.4932 25.8887 26.4521L20.2607 23.0742H9.32715C7.60156 23.0742 6.19531 21.6709 6.19531 19.9424V9.43652C6.19531 7.71094 7.59863 6.30469 9.32715 6.30469H26.0762C27.8018 6.30469 29.208 7.70801 29.208 9.43652V19.9453C29.208 21.5273 28.0303 22.8369 26.5068 23.0478L26.5361 26.0889C26.5361 26.2412 26.457 26.3848 26.3223 26.4609C26.2549 26.4932 26.1816 26.5137 26.1084 26.5137ZM9.32715 7.1543C8.07031 7.1543 7.04492 8.17676 7.04492 9.43652V19.9453C7.04492 21.2021 8.06738 22.2275 9.32715 22.2275H20.3779C20.4541 22.2275 20.5303 22.248 20.5977 22.2891L25.6807 25.3389L25.6572 22.6582C25.6572 22.5439 25.7012 22.4355 25.7803 22.3564C25.8594 22.2773 25.9678 22.2305 26.082 22.2305C27.3389 22.2305 28.3643 21.208 28.3643 19.9482V9.43652C28.3643 8.17969 27.3418 7.1543 26.082 7.1543H9.32715Z" fill="#154B8B"/>
<path d="M11.0156 14.6426C11.0156 14.9907 11.1616 15.3245 11.4215 15.5707C11.6814 15.8168 12.0338 15.9551 12.4014 15.9551C12.7689 15.9551 13.1214 15.8168 13.3812 15.5707C13.6411 15.3245 13.7871 14.9907 13.7871 14.6426C13.7871 14.2945 13.6411 13.9606 13.3812 13.7145C13.1214 13.4684 12.7689 13.3301 12.4014 13.3301C12.0338 13.3301 11.6814 13.4684 11.4215 13.7145C11.1616 13.9606 11.0156 14.2945 11.0156 14.6426Z" fill="#144884"/>
<path d="M16.3203 14.6426C16.3203 14.9907 16.4663 15.3245 16.7262 15.5707C16.9861 15.8168 17.3385 15.9551 17.7061 15.9551C18.0736 15.9551 18.426 15.8168 18.6859 15.5707C18.9458 15.3245 19.0918 14.9907 19.0918 14.6426C19.0918 14.2945 18.9458 13.9606 18.6859 13.7145C18.426 13.4684 18.0736 13.3301 17.7061 13.3301C17.3385 13.3301 16.9861 13.4684 16.7262 13.7145C16.4663 13.9606 16.3203 14.2945 16.3203 14.6426Z" fill="#144884"/>
<path d="M21.6172 14.6426C21.6172 14.9907 21.7632 15.3245 22.0231 15.5707C22.2829 15.8168 22.6354 15.9551 23.0029 15.9551C23.3705 15.9551 23.7229 15.8168 23.9828 15.5707C24.2427 15.3245 24.3887 14.9907 24.3887 14.6426C24.3887 14.2945 24.2427 13.9606 23.9828 13.7145C23.7229 13.4684 23.3705 13.3301 23.0029 13.3301C22.6354 13.3301 22.2829 13.4684 22.0231 13.7145C21.7632 13.9606 21.6172 14.2945 21.6172 14.6426Z" fill="#144884"/>
</svg>
