<svg width="34" height="34" viewBox="0 0 34 34" fill="none" xmlns="http://www.w3.org/2000/svg">
<path d="M14.951 14.3113C14.5078 14.3113 14.0745 14.4428 13.706 14.689C13.3374 14.9353 13.0502 15.2853 12.8805 15.6948C12.7109 16.1043 12.6665 16.5549 12.753 16.9896C12.8395 17.4244 13.0529 17.8237 13.3663 18.1371C13.6798 18.4505 14.0791 18.664 14.5138 18.7505C14.9486 18.8369 15.3992 18.7926 15.8087 18.6229C16.2182 18.4533 16.5682 18.1661 16.8144 17.7975C17.0607 17.429 17.1921 16.9957 17.1921 16.5524C17.1921 15.958 16.956 15.388 16.5357 14.9677C16.1154 14.5474 15.5454 14.3113 14.951 14.3113ZM7.10719 14.3113C6.66394 14.3113 6.23065 14.4428 5.8621 14.689C5.49355 14.9353 5.20631 15.2853 5.03668 15.6948C4.86706 16.1043 4.82268 16.5549 4.90915 16.9896C4.99563 17.4244 5.20907 17.8237 5.52249 18.1371C5.83592 18.4505 6.23524 18.664 6.66997 18.7505C7.1047 18.8369 7.55531 18.7926 7.96482 18.6229C8.37433 18.4533 8.72434 18.1661 8.9706 17.7975C9.21685 17.429 9.34829 16.9957 9.34829 16.5524C9.34829 15.958 9.11217 15.388 8.69189 14.9677C8.2716 14.5474 7.70157 14.3113 7.10719 14.3113ZM22.7949 14.3113C22.3516 14.3113 21.9183 14.4428 21.5498 14.689C21.1813 14.9353 20.894 15.2853 20.7244 15.6948C20.5548 16.1043 20.5104 16.5549 20.5969 16.9896C20.6833 17.4244 20.8968 17.8237 21.2102 18.1371C21.5236 18.4505 21.9229 18.664 22.3577 18.7505C22.7924 18.8369 23.243 18.7926 23.6525 18.6229C24.062 18.4533 24.412 18.1661 24.6583 17.7975C24.9046 17.429 25.036 16.9957 25.036 16.5524C25.036 15.958 24.7999 15.388 24.3796 14.9677C23.9593 14.5474 23.3893 14.3113 22.7949 14.3113Z" fill="#141414"/>
</svg>
