<svg width="31" height="30" viewBox="0 0 31 30" fill="none" xmlns="http://www.w3.org/2000/svg">
<g clip-path="url(#clip0_1_302)">
<path d="M25.3571 21.7843V12.3524C25.3571 6.99195 21.0116 2.64648 15.6512 2.64648C10.2908 2.64648 5.94531 6.99195 5.94531 12.3524V21.7843H7.71002C10.0803 21.7843 12.7273 21.7843 15.6512 21.7843C18.575 21.7843 21.2221 21.7843 23.5924 21.7843H25.3571Z" fill="#31BBFF"/>
<path d="M25.7964 20.2949C27.502 20.2949 28.8846 21.6776 28.8846 23.3832C28.8846 25.0887 27.502 26.4714 25.7964 26.4714H5.5023C3.79671 26.4714 2.41406 25.0887 2.41406 23.3832C2.41406 21.6776 3.79671 20.2949 5.5023 20.2949H25.7964Z" fill="#1090CF"/>
<path d="M10.3571 24.7059C10.3571 27.6297 12.7273 30 15.6512 30C18.5751 30 20.9453 27.6297 20.9453 24.7059H10.3571Z" fill="#31BBFF"/>
<path d="M13.8856 4.4668L17.415 4.4668H19.1797V3.08785C19.1797 1.38227 17.797 -0.000379562 16.0915 -0.000379562L15.2091 -0.000379562C13.5035 -0.000379562 12.1209 1.38227 12.1209 3.08785V4.4668H13.8856Z" fill="#21B6FF"/>
<path d="M23.5915 2.64648C21.1549 2.64648 19.1797 4.6217 19.1797 7.05825C19.1797 9.4948 21.1549 11.47 23.5915 11.47C26.028 11.47 28.0032 9.4948 28.0032 7.05825C28.0032 4.6217 26.028 2.64648 23.5915 2.64648Z" fill="url(#paint0_linear_1_302)"/>
</g>
<defs>
<linearGradient id="paint0_linear_1_302" x1="460.356" y1="2.64648" x2="460.356" y2="884.999" gradientUnits="userSpaceOnUse">
<stop stop-color="#EB2E2E"/>
<stop offset="1" stop-color="#D71919"/>
</linearGradient>
<clipPath id="clip0_1_302">
<rect width="30" height="30" fill="white" transform="translate(0.648438)"/>
</clipPath>
</defs>
</svg>
