<svg width="19" height="20" viewBox="0 0 19 20" fill="none" xmlns="http://www.w3.org/2000/svg">
<path fill-rule="evenodd" clip-rule="evenodd" d="M3.14405 1.46875C2.71002 1.46875 2.35815 1.82061 2.35815 2.25465V17.9727C2.35815 18.4067 2.71002 18.7586 3.14405 18.7586C3.57809 18.7586 3.92995 18.4067 3.92995 17.9727V11.3698C4.2962 11.1874 4.87518 10.9333 5.49587 10.7781C6.60917 10.4998 7.50264 10.6026 7.99149 11.3357C8.90392 12.7043 10.6464 12.8248 11.9875 12.6912C13.4026 12.5503 14.8027 12.0868 15.5105 11.825C16.1324 11.5951 16.5044 11.0045 16.5044 10.3815V5.18085C16.5044 3.9616 15.2138 3.24979 14.1851 3.71628C13.3509 4.09458 12.2427 4.51706 11.2413 4.6566C10.1935 4.80259 9.58498 4.60504 9.29922 4.17652C8.2682 2.63002 6.50423 2.44693 5.24 2.55228C4.75468 2.59273 4.30372 2.67759 3.92995 2.76744V2.25465C3.92995 1.82061 3.57809 1.46875 3.14405 1.46875ZM3.92995 4.39314V9.64581C4.2764 9.50434 4.6814 9.36154 5.11468 9.25325C6.35907 8.94219 8.21625 8.83947 9.29922 10.4638C9.67536 11.028 10.5421 11.2556 11.8316 11.1272C13.0274 11.0081 14.2584 10.6104 14.9326 10.3629V5.18085C14.9326 5.14514 14.8603 5.13594 14.8343 5.14775C13.9561 5.54603 12.6846 6.04247 11.4582 6.21335C10.2781 6.37779 8.81071 6.27728 7.99149 5.04843C7.4507 4.23735 6.46401 4.02753 5.37054 4.11865C4.81335 4.16509 4.29482 4.28719 3.92995 4.39314Z" fill="#58606C"/>
</svg>
