<svg width="56" height="56" viewBox="0 0 56 56" fill="none" xmlns="http://www.w3.org/2000/svg">
<path d="M6.99545 37.4905C6.99545 36.3306 7.93575 35.3903 9.09567 35.3903H15.3964V28.0395L27.9977 19.6386L40.5991 28.0395V35.3903H46.8998C48.0597 35.3903 49 36.3306 49 37.4905V46.9416C49 48.1015 48.0597 49.0418 46.8998 49.0418H6.99545V37.4905Z" fill="#31BBFF" stroke="#154B8B" stroke-width="0.900098" stroke-linejoin="round"/>
<path d="M27.9989 9.13678V19.6379" stroke="#154B8B" stroke-width="0.900098" stroke-linecap="round"/>
<path d="M40.6002 15.438V9.13727C40.6002 9.13727 39.0251 12.2876 34.2995 9.13727C29.574 5.98693 27.9989 9.13727 27.9989 9.13727V15.438C27.9989 15.438 29.574 12.2876 34.2995 15.438C39.0251 18.5883 40.6002 15.438 40.6002 15.438Z" stroke="#154B8B" stroke-width="0.900098" stroke-linecap="round" stroke-linejoin="round"/>
<path d="M32.1991 49.0417V35.3902H23.7982V49.0417" stroke="white" stroke-width="1.8002" stroke-linecap="round" stroke-linejoin="round"/>
<path d="M21.6961 49.0416H34.2975" stroke="#154B8B" stroke-width="0.900098" stroke-linecap="round" stroke-linejoin="round"/>
</svg>
