<svg width="30" height="30" viewBox="0 0 30 30" fill="none" xmlns="http://www.w3.org/2000/svg">
<path d="M9.4074 11.4351H0.619141V18.8713H9.4074V11.4351Z" fill="#0490CF"/>
<path d="M18.871 0.618652H11.4348V9.40691H18.871V0.618652Z" fill="#0490CF"/>
<path d="M18.871 11.4351H11.4348V18.8713H18.871V11.4351Z" fill="#0490CF"/>
<path d="M18.871 20.8989H11.4348V29.6872H18.871V20.8989Z" fill="#0490CF"/>
<path d="M29.6878 27.1706V20.8989H20.8995V29.6872H27.1712C27.8384 29.6864 28.4781 29.4211 28.9499 28.9493C29.4217 28.4775 29.6871 27.8378 29.6878 27.1706Z" fill="#0490CF"/>
<path d="M9.40724 0.618652H3.13558C2.46837 0.619393 1.82869 0.884771 1.3569 1.35656C0.885107 1.82836 0.619729 2.46803 0.618988 3.13524V9.40691H9.40724V0.618652Z" fill="#0490CF"/>
<path d="M0.619141 27.1706C0.619881 27.8378 0.885259 28.4775 1.35705 28.9493C1.82884 29.4211 2.46852 29.6864 3.13573 29.6872H9.4074V20.8989H0.619141V27.1706Z" fill="#0490CF"/>
<path d="M29.6878 3.13524C29.6871 2.46803 29.4217 1.82836 28.9499 1.35656C28.4781 0.884771 27.8384 0.619393 27.1712 0.618652H20.8995V9.40691H29.6878V3.13524Z" fill="#0490CF"/>
<path d="M29.6878 11.4351H20.8995V18.8713H29.6878V11.4351Z" fill="#0490CF"/>
</svg>
